<svg width="35" height="36" viewBox="0 0 35 36" fill="none" xmlns="http://www.w3.org/2000/svg">
<g clip-path="url(#clip0_5_12)">
<path d="M9.07996 12.334C9.07081 12.4327 9.06704 12.5319 9.06866 12.6311C9.08911 14.0124 8.55028 15.4351 7.55228 16.4116C7.06781 16.8885 6.58658 17.3638 6.11664 17.8547C5.64956 18.3345 5.08043 18.7029 4.45151 18.9326C3.82259 19.1623 3.15001 19.2474 2.48368 19.1816C2.40886 19.1741 2.3335 19.1703 2.25814 19.1682C0.966228 19.1386 -0.265931 20.1253 0.0511248 21.5001C0.363337 22.8555 0.762752 24.415 3.09573 24.3773C3.16832 24.3846 3.24028 24.3972 3.31104 24.415C4.73968 24.5996 6.06604 25.3354 7.06673 26.3582C7.57812 26.8918 8.08142 27.4328 8.57665 27.9812C9.50952 29.0341 10.2384 30.3357 10.4822 31.7304C10.4968 31.8139 10.5156 31.8989 10.5393 31.985C10.7368 32.7096 11.1901 33.3566 11.7182 33.8804C12.2139 34.3713 12.8394 34.817 13.5268 34.9704C14.9049 35.2778 15.7947 34.0279 15.7538 32.7812C15.6999 31.191 14.3165 29.8566 12.7538 29.659L12.7 29.6526C11.3731 29.5056 10.1872 28.7779 9.28613 27.8159C8.57935 27.0456 7.89194 26.2592 7.16524 25.5077C6.2679 24.5684 5.50406 23.3954 5.35173 22.0782C5.35202 22.0727 5.35202 22.0671 5.35173 22.0615C5.35173 22.0561 5.35173 22.0502 5.35173 22.0448C5.19993 20.8224 5.61549 19.665 6.45254 18.7553C7.10818 18.0598 7.74983 17.3557 8.43508 16.6866C9.40402 15.7382 10.7379 15.2365 12.0713 15.1859H12.1337C13.8466 15.1008 15.4023 13.7562 15.4286 11.9835C15.4343 11.5899 15.3578 11.1993 15.204 10.8369C15.0503 10.4744 14.8226 10.148 14.5356 9.87844C14.2486 9.60891 13.9086 9.40219 13.5372 9.27147C13.1658 9.14076 12.7712 9.08892 12.3786 9.11927C10.7207 9.23769 9.23445 10.6819 9.07996 12.334Z" fill="url(#paint0_linear_5_12)"/>
<path d="M22.6795 9.11984C22.5754 9.11016 22.4708 9.10585 22.3662 9.10692C20.9203 9.12253 19.3717 8.60577 18.3521 7.54209C17.8752 7.04794 17.4037 6.5484 16.9262 6.05478C16.0111 5.08208 15.5433 3.77563 15.7285 2.44174C15.7387 2.36907 15.7457 2.29586 15.75 2.22265C15.7985 1.34361 15.3328 0.382214 14.4538 0.0979934C13.4585 -0.224984 12.0514 0.294471 11.3112 0.952269C10.8806 1.335 10.7019 1.87599 10.5463 2.43258C10.4042 2.94235 10.4887 3.43112 10.331 3.94789C9.99348 5.06485 9.35775 6.10107 8.57076 6.96235C8.06835 7.50818 7.56092 8.04827 7.04846 8.58262C6.05907 9.59031 4.74133 10.3235 3.33907 10.5399C3.25401 10.5533 3.1695 10.5819 3.07961 10.5937C1.19234 10.8397 0.354752 12.1827 0.0468472 13.5446C-0.0812672 14.1093 0.0420028 14.7084 0.457567 15.1261C0.922117 15.5939 1.59875 15.7457 2.23071 15.7102C3.7697 15.6246 5.13374 14.3359 5.35714 12.8002C5.35983 12.7824 5.36198 12.7646 5.36467 12.7463C5.52616 11.4474 6.28516 10.2847 7.1825 9.36315C7.91727 8.61868 8.6106 7.83708 9.32276 7.07108C10.2185 6.12637 11.3861 5.39483 12.7006 5.2468H12.7173H12.7339C13.9634 5.10738 15.131 5.5224 16.0175 6.39498C16.6931 7.07862 17.3514 7.78056 18.0319 8.45935C18.9786 9.40227 19.5272 10.6727 19.5644 12.0083V12.0675C19.6333 13.8385 21.2169 15.1719 22.9395 15.2101C24.5544 15.2462 26.039 14.0684 25.9168 12.3685C25.8027 10.7089 24.3138 9.27218 22.6795 9.11984Z" fill="url(#paint1_linear_5_12)"/>
<path d="M27.5005 30.8271C28.0587 29.3899 29.3705 28.0759 30.8094 27.5209C31.0834 27.4132 31.7783 27.129 32.0421 27.4326C32.2843 27.7136 31.8359 28.232 31.6798 28.4371C31.2179 29.0438 30.6613 29.5928 30.1187 30.1344C29.5761 30.6759 29.0271 31.2346 28.4199 31.6954C28.2121 31.8537 27.6964 32.2962 27.4143 32.048C27.114 31.7842 27.3928 31.1038 27.5005 30.8271Z" fill="url(#paint2_linear_5_12)"/>
<path d="M3.32181 28.4371C3.17054 28.2379 2.7173 27.7147 2.95953 27.4364C3.22222 27.1344 3.91447 27.4235 4.19169 27.5317C5.63163 28.0936 6.937 29.4157 7.50059 30.8535C7.60825 31.1274 7.8887 31.803 7.58672 32.0592C7.30411 32.2988 6.78358 31.8504 6.58118 31.6964C5.97452 31.2346 5.42439 30.6774 4.88232 30.1354C4.34026 29.5933 3.7842 29.0437 3.32181 28.4371Z" fill="url(#paint3_linear_5_12)"/>
<path d="M27.4951 4.17773C27.3874 3.90859 27.1113 3.23572 27.4127 2.97949C27.697 2.73779 28.2126 3.18081 28.4204 3.33907C29.0271 3.80039 29.5762 4.35806 30.1182 4.90013C30.6603 5.44219 31.218 5.99179 31.6793 6.59845C31.8316 6.79924 32.2833 7.32138 32.034 7.59376C31.7649 7.88767 31.0651 7.58784 30.7959 7.47856C29.3711 6.90797 28.0565 5.60745 27.4951 4.17773Z" fill="url(#paint4_linear_5_12)"/>
<path d="M3.3218 6.5979C3.78419 5.99071 4.34133 5.44057 4.88285 4.89797C5.42438 4.35536 5.97398 3.80038 6.5801 3.33691C6.7825 3.18295 7.30303 2.73402 7.58725 2.96764C7.89032 3.21579 7.6104 3.88274 7.50436 4.15189C6.94022 5.58322 5.63001 6.89074 4.20514 7.46779C3.92899 7.57922 3.23621 7.8812 2.96706 7.58891C2.71729 7.31761 3.17377 6.79277 3.3218 6.5979Z" fill="url(#paint5_linear_5_12)"/>
<path d="M22.2332 5.25539L22.2941 5.26293C23.706 5.42119 24.9791 6.21571 25.9405 7.23417C26.5094 7.84944 27.0709 8.47225 27.663 9.06922C28.6319 10.0618 29.4582 11.301 29.6342 12.707C29.6342 12.7129 29.6342 12.7189 29.6342 12.7242L29.6423 12.7824C29.8275 14.0915 29.3904 15.342 28.4344 16.2684C27.9569 16.7189 27.4703 17.1609 27.0165 17.6357C25.9749 18.7295 24.4989 19.2785 23.0116 19.2678H22.9373C21.1421 19.2839 19.5999 20.7411 19.566 22.5514C19.5331 24.2658 20.8843 25.8054 22.6558 25.6837C24.373 25.5658 25.8414 23.9988 25.9615 22.3016C25.9615 22.2779 25.9647 22.2548 25.9658 22.2316C26.0331 20.7971 26.5827 19.3022 27.6065 18.2719C28.0834 17.7961 28.563 17.324 29.0599 16.8664C30.0547 15.9702 31.3606 15.5648 32.6907 15.6903C32.7085 15.6903 32.7268 15.694 32.7445 15.6951C33.3808 15.7387 34.0617 15.5874 34.5327 15.1175C34.9564 14.6971 35.0651 14.1104 34.9531 13.5344C34.5763 11.5874 33.6515 10.8381 31.8881 10.5802C31.8531 10.5748 31.8197 10.5641 31.7858 10.5571C30.327 10.2556 28.9797 9.49393 27.9338 8.43618C27.4558 7.94418 26.9831 7.44679 26.5159 6.94403C25.5524 5.88951 24.781 4.57875 24.4801 3.17596C24.4698 3.12805 24.4575 3.08014 24.4445 3.03116C24.0914 1.71987 22.8221 0.361748 21.4759 0.066762C20.1193 -0.230916 19.2059 0.94203 19.2478 2.19895C19.2979 3.76055 20.7126 5.05299 22.2332 5.25539Z" fill="url(#paint6_linear_5_12)"/>
<path d="M12.2914 25.6234C12.3968 25.6327 12.5027 25.6357 12.6085 25.6326C14.1012 25.5895 15.6289 26.1762 16.6495 27.2808C17.1232 27.7906 17.5877 28.3084 18.0598 28.8198C18.9803 29.8377 19.4438 31.1593 19.2651 32.5282C19.2554 32.6024 19.2478 32.6783 19.2446 32.7521C19.1908 34.0219 20.0897 35.2821 21.4834 34.9682C22.1832 34.8121 23.094 34.5462 23.5903 34.0424C24.1156 33.5089 24.2814 32.6573 24.4693 31.9258C24.4876 31.8537 24.5032 31.7826 24.5156 31.7132C24.7616 30.3136 25.5039 28.9856 26.4454 27.9349C26.9417 27.3923 27.4454 26.8567 27.9564 26.328C28.956 25.3166 30.2608 24.5958 31.6798 24.4144C31.7648 24.4036 31.8493 24.3692 31.9398 24.3686C33.7366 24.3573 34.6598 22.8496 34.9542 21.4914C35.2546 20.1005 34.0569 19.1692 32.7779 19.1649C31.2109 19.1601 29.877 20.4665 29.6601 22.0044C29.6574 22.0227 29.6552 22.0411 29.6525 22.0583C29.4873 23.3857 28.7374 24.5614 27.8277 25.5125C27.1016 26.2661 26.4093 27.0445 25.7063 27.817C24.8165 28.7741 23.6344 29.5314 22.3113 29.6725H22.2946H22.2774C21.0317 29.8211 19.8513 29.3877 18.9615 28.4888C18.2784 27.775 17.6254 27.0354 16.9622 26.3044C16.0141 25.2633 15.4689 23.9179 15.4249 22.5104C15.4249 22.4894 15.4249 22.4685 15.4249 22.4475C15.3559 20.6512 13.8288 19.2177 12.039 19.2177C10.3557 19.2177 8.92547 20.5424 9.03905 22.2666C9.14725 23.9509 10.6023 25.4829 12.2914 25.6234Z" fill="url(#paint7_linear_5_12)"/>
</g>
<defs>
<linearGradient id="paint0_linear_5_12" x1="15.7554" y1="22.0621" x2="-1.32188e-05" y2="22.0621" gradientUnits="userSpaceOnUse">
<stop stop-color="white"/>
</linearGradient>
<linearGradient id="paint1_linear_5_12" x1="25.9292" y1="7.857" x2="1.57447e-05" y2="7.857" gradientUnits="userSpaceOnUse">
<stop stop-color="white"/>
</linearGradient>
<linearGradient id="paint2_linear_5_12" x1="32.1126" y1="29.7096" x2="27.2792" y2="29.7096" gradientUnits="userSpaceOnUse">
<stop stop-color="white"/>
<stop offset="0.29" stop-color="white"/>
<stop offset="0.61" stop-color="white"/>
<stop offset="0.68" stop-color="white"/>
<stop offset="0.75" stop-color="white"/>
</linearGradient>
<linearGradient id="paint3_linear_5_12" x1="-22999.7" y1="11100.8" x2="-22565.8" y2="11100.8" gradientUnits="userSpaceOnUse">
<stop stop-color="white"/>
</linearGradient>
<linearGradient id="paint4_linear_5_12" x1="32.2273" y1="3.26478" x2="24.099" y2="9.83634" gradientUnits="userSpaceOnUse">
<stop offset="0.18" stop-color="white"/>
</linearGradient>
<linearGradient id="paint5_linear_5_12" x1="-22987.6" y1="13225.1" x2="-22554.1" y2="13225.1" gradientUnits="userSpaceOnUse">
<stop stop-color="white"/>
</linearGradient>
<linearGradient id="paint6_linear_5_12" x1="-82912.1" y1="66948.3" x2="-78305.1" y2="66948.3" gradientUnits="userSpaceOnUse">
<stop stop-color="white"/>
</linearGradient>
<linearGradient id="paint7_linear_5_12" x1="32.9496" y1="9.94391" x2="14.0985" y2="30.1785" gradientUnits="userSpaceOnUse">
<stop offset="0.18" stop-color="white"/>
<stop offset="0.33" stop-color="white"/>
<stop offset="0.58" stop-color="white"/>
<stop offset="0.66" stop-color="white"/>
<stop offset="0.73" stop-color="white"/>
<stop offset="0.81" stop-color="white"/>
<stop offset="0.88" stop-color="white"/>
<stop offset="0.95" stop-color="white"/>
<stop offset="1" stop-color="white"/>
</linearGradient>
<clipPath id="clip0_5_12">
<rect width="35" height="35.0178" fill="white"/>
</clipPath>
</defs>
</svg>
